<svg xmlns="http://www.w3.org/2000/svg" width="900" height="1200" viewBox="0 0 900 1200" role="img"><radialGradient id="bgs37" cx="50%" cy="34%" r="78%"><stop offset="0%" stop-color="#FFFDF7"/><stop offset="100%" stop-color="#F8F3E8"/></radialGradient><rect width="900" height="1200" fill="url(#bgs37)"/><g opacity="0.45"><g fill="none" stroke="#B49A62" stroke-width="1.2" stroke-linecap="round" stroke-linejoin="round"><circle cx="450" cy="528" r="324"/><circle cx="450" cy="528" r="239.76" stroke-dasharray="2 6"/><circle cx="450" cy="528" r="149.04"/><path d="M 499.77 528 Q 636.62 559.1 761.04 528 Q 636.62 496.9 499.77 528 Z"/><path d="M 495.98 547.04 Q 610.52 628.15 737.36 647.03 Q 634.32 570.68 495.98 547.04 Z"/><path d="M 485.19 563.19 Q 559.97 681.96 669.94 747.94 Q 603.96 637.97 485.19 563.19 Z"/><path d="M 469.04 573.98 Q 492.68 712.32 569.03 815.36 Q 550.15 688.52 469.04 573.98 Z"/><path d="M 450 577.77 Q 418.9 714.62 450 839.04 Q 481.1 714.62 450 577.77 Z"/><path d="M 430.96 573.98 Q 349.85 688.52 330.97 815.36 Q 407.32 712.32 430.96 573.98 Z"/><path d="M 414.81 563.19 Q 296.04 637.97 230.06 747.94 Q 340.03 681.96 414.81 563.19 Z"/><path d="M 404.02 547.04 Q 265.68 570.68 162.64 647.03 Q 289.48 628.15 404.02 547.04 Z"/><path d="M 400.23 528 Q 263.38 496.9 138.96 528 Q 263.38 559.1 400.23 528 Z"/><path d="M 404.02 508.96 Q 289.48 427.85 162.64 408.97 Q 265.68 485.32 404.02 508.96 Z"/><path d="M 414.81 492.81 Q 340.03 374.04 230.06 308.06 Q 296.04 418.03 414.81 492.81 Z"/><path d="M 430.96 482.02 Q 407.32 343.68 330.97 240.64 Q 349.85 367.48 430.96 482.02 Z"/><path d="M 450 478.23 Q 481.1 341.38 450 216.96 Q 418.9 341.38 450 478.23 Z"/><path d="M 469.04 482.02 Q 550.15 367.48 569.03 240.64 Q 492.68 343.68 469.04 482.02 Z"/><path d="M 485.19 492.81 Q 603.96 418.03 669.94 308.06 Q 559.97 374.04 485.19 492.81 Z"/><path d="M 495.98 508.96 Q 634.32 485.32 737.36 408.97 Q 610.52 427.85 495.98 508.96 Z"/><path d="M 493.81 539.74 Q 539.7 568.81 593.96 566.57 Q 548.08 537.51 493.81 539.74 Z"/><path d="M 482.07 560.07 Q 507.28 608.19 555.39 633.39 Q 530.19 585.28 482.07 560.07 Z"/><path d="M 461.74 571.81 Q 459.51 626.08 488.57 671.96 Q 490.81 617.7 461.74 571.81 Z"/><path d="M 438.26 571.81 Q 409.19 617.7 411.43 671.96 Q 440.49 626.08 438.26 571.81 Z"/><path d="M 417.93 560.07 Q 369.81 585.28 344.61 633.39 Q 392.72 608.19 417.93 560.07 Z"/><path d="M 406.19 539.74 Q 351.92 537.51 306.04 566.57 Q 360.3 568.81 406.19 539.74 Z"/><path d="M 406.19 516.26 Q 360.3 487.19 306.04 489.43 Q 351.92 518.49 406.19 516.26 Z"/><path d="M 417.93 495.93 Q 392.72 447.81 344.61 422.61 Q 369.81 470.72 417.93 495.93 Z"/><path d="M 438.26 484.19 Q 440.49 429.92 411.43 384.04 Q 409.19 438.3 438.26 484.19 Z"/><path d="M 461.74 484.19 Q 490.81 438.3 488.57 384.04 Q 459.51 429.92 461.74 484.19 Z"/><path d="M 482.07 495.93 Q 530.19 470.72 555.39 422.61 Q 507.28 447.81 482.07 495.93 Z"/><path d="M 493.81 516.26 Q 548.08 518.49 593.96 489.43 Q 539.7 487.19 493.81 516.26 Z"/><path d="M 774 528 Q 819.14 532.45 767.77 591.21"/><path d="M 767.77 591.21 Q 811.18 604.38 749.34 651.99"/><path d="M 749.34 651.99 Q 789.34 673.37 719.4 708"/><path d="M 719.4 708 Q 754.46 736.78 679.1 757.1"/><path d="M 679.1 757.1 Q 707.88 792.17 630 797.4"/><path d="M 630 797.4 Q 651.39 837.4 573.99 827.34"/><path d="M 573.99 827.34 Q 587.16 870.74 513.21 845.77"/><path d="M 513.21 845.77 Q 517.66 890.92 450 852"/><path d="M 450 852 Q 445.55 897.14 386.79 845.77"/><path d="M 386.79 845.77 Q 373.62 889.18 326.01 827.34"/><path d="M 326.01 827.34 Q 304.63 867.34 270 797.4"/><path d="M 270 797.4 Q 241.22 832.46 220.9 757.1"/><path d="M 220.9 757.1 Q 185.83 785.88 180.6 708"/><path d="M 180.6 708 Q 140.6 729.39 150.66 651.99"/><path d="M 150.66 651.99 Q 107.26 665.16 132.23 591.21"/><path d="M 132.23 591.21 Q 87.08 595.66 126 528"/><path d="M 126 528 Q 80.86 523.55 132.23 464.79"/><path d="M 132.23 464.79 Q 88.82 451.62 150.66 404.01"/><path d="M 150.66 404.01 Q 110.66 382.63 180.6 348"/><path d="M 180.6 348 Q 145.54 319.22 220.9 298.9"/><path d="M 220.9 298.9 Q 192.12 263.83 270 258.6"/><path d="M 270 258.6 Q 248.61 218.6 326.01 228.66"/><path d="M 326.01 228.66 Q 312.84 185.26 386.79 210.23"/><path d="M 386.79 210.23 Q 382.34 165.08 450 204"/><path d="M 450 204 Q 454.45 158.86 513.21 210.23"/><path d="M 513.21 210.23 Q 526.38 166.82 573.99 228.66"/><path d="M 573.99 228.66 Q 595.37 188.66 630 258.6"/><path d="M 630 258.6 Q 658.78 223.54 679.1 298.9"/><path d="M 679.1 298.9 Q 714.17 270.12 719.4 348"/><path d="M 719.4 348 Q 759.4 326.61 749.34 404.01"/><path d="M 749.34 404.01 Q 792.74 390.84 767.77 464.79"/><path d="M 767.77 464.79 Q 812.92 460.34 774 528"/><circle cx="450" cy="528" r="14.58" fill="#B49A62" stroke="none"/></g></g><g fill="none" stroke="#B49A62" stroke-width="1.4" stroke-linecap="round" stroke-linejoin="round"><circle cx="450" cy="528" r="180"/><circle cx="450" cy="528" r="133.2" stroke-dasharray="2 6"/><circle cx="450" cy="528" r="82.8"/><path d="M 477.65 528 Q 553.68 545.28 622.8 528 Q 553.68 510.72 477.65 528 Z"/><path d="M 469.55 547.55 Q 511.09 613.53 572.19 650.19 Q 535.53 589.09 469.55 547.55 Z"/><path d="M 450 555.65 Q 432.72 631.68 450 700.8 Q 467.28 631.68 450 555.65 Z"/><path d="M 430.45 547.55 Q 364.47 589.09 327.81 650.19 Q 388.91 613.53 430.45 547.55 Z"/><path d="M 422.35 528 Q 346.32 510.72 277.2 528 Q 346.32 545.28 422.35 528 Z"/><path d="M 430.45 508.45 Q 388.91 442.47 327.81 405.81 Q 364.47 466.91 430.45 508.45 Z"/><path d="M 450 500.35 Q 467.28 424.32 450 355.2 Q 432.72 424.32 450 500.35 Z"/><path d="M 469.55 508.45 Q 535.53 466.91 572.19 405.81 Q 511.09 442.47 469.55 508.45 Z"/><path d="M 471.82 540.6 Q 492.27 562.79 521.71 569.4 Q 501.27 547.21 471.82 540.6 Z"/><path d="M 450 553.2 Q 441 582 450 610.8 Q 459 582 450 553.2 Z"/><path d="M 428.18 540.6 Q 398.73 547.21 378.29 569.4 Q 407.73 562.79 428.18 540.6 Z"/><path d="M 428.18 515.4 Q 407.73 493.21 378.29 486.6 Q 398.73 508.79 428.18 515.4 Z"/><path d="M 450 502.8 Q 459 474 450 445.2 Q 441 474 450 502.8 Z"/><path d="M 471.82 515.4 Q 501.27 508.79 521.71 486.6 Q 492.27 493.21 471.82 515.4 Z"/><circle cx="450" cy="528" r="8.1" fill="#B49A62" stroke="none"/></g><circle cx="450" cy="528" r="252" fill="none" stroke="#C8B78A" stroke-width="1" stroke-dasharray="2 10"/><g transform="translate(216 983.9999999999999) rotate(8) scale(1.1842105263157894)" fill="none" stroke="#344C3A" stroke-width="1.69" stroke-linecap="round" stroke-linejoin="round">
    <path d="M0 0 C 4 -40 -4 -80 0 -120"/>
    <path d="M0 -26 C 18 -30 30 -42 34 -58 C 16 -56 4 -44 0 -26 Z"/>
    <path d="M0 -50 C -18 -54 -30 -66 -34 -82 C -16 -80 -4 -68 0 -50 Z"/>
    <path d="M0 -78 C 16 -82 28 -94 32 -110 C 14 -108 2 -96 0 -78 Z"/>
    <path d="M0 -100 C -14 -104 -24 -114 -28 -128 C -12 -126 -2 -116 0 -100 Z"/>
    <circle cx="0" cy="-124" r="3"/>
  </g><g fill="#B49A62" stroke="none"><circle cx="720" cy="288" r="1.7"/><circle cx="702" cy="319.18" r="1.7"/><circle cx="666" cy="319.18" r="1.7"/><circle cx="648" cy="288" r="1.7"/><circle cx="666" cy="256.82" r="1.7"/><circle cx="702" cy="256.82" r="1.7"/></g><rect x="22" y="22" width="856" height="1156" rx="20" fill="none" stroke="#C8B78A" stroke-width="2"/><text x="450" y="1156" text-anchor="middle" font-family="Georgia, 'Times New Roman', serif" font-size="16" letter-spacing="7" fill="#B49A62" opacity="0.6">MEHNDI NOOR</text></svg>