<svg xmlns="http://www.w3.org/2000/svg" width="900" height="1100" viewBox="0 0 900 1100" role="img"><radialGradient id="bgs35" cx="50%" cy="34%" r="78%"><stop offset="0%" stop-color="#FFFDF7"/><stop offset="100%" stop-color="#F8F3E8"/></radialGradient><rect width="900" height="1100" fill="url(#bgs35)"/><g opacity="0.45"><g fill="none" stroke="#B49A62" stroke-width="1.2" stroke-linecap="round" stroke-linejoin="round"><circle cx="450" cy="484" r="324"/><circle cx="450" cy="484" r="239.76" stroke-dasharray="2 6"/><circle cx="450" cy="484" r="149.04"/><path d="M 499.77 484 Q 636.62 515.1 761.04 484 Q 636.62 452.9 499.77 484 Z"/><path d="M 495.98 503.04 Q 610.52 584.15 737.36 603.03 Q 634.32 526.68 495.98 503.04 Z"/><path d="M 485.19 519.19 Q 559.97 637.96 669.94 703.94 Q 603.96 593.97 485.19 519.19 Z"/><path d="M 469.04 529.98 Q 492.68 668.32 569.03 771.36 Q 550.15 644.52 469.04 529.98 Z"/><path d="M 450 533.77 Q 418.9 670.62 450 795.04 Q 481.1 670.62 450 533.77 Z"/><path d="M 430.96 529.98 Q 349.85 644.52 330.97 771.36 Q 407.32 668.32 430.96 529.98 Z"/><path d="M 414.81 519.19 Q 296.04 593.97 230.06 703.94 Q 340.03 637.96 414.81 519.19 Z"/><path d="M 404.02 503.04 Q 265.68 526.68 162.64 603.03 Q 289.48 584.15 404.02 503.04 Z"/><path d="M 400.23 484 Q 263.38 452.9 138.96 484 Q 263.38 515.1 400.23 484 Z"/><path d="M 404.02 464.96 Q 289.48 383.85 162.64 364.97 Q 265.68 441.32 404.02 464.96 Z"/><path d="M 414.81 448.81 Q 340.03 330.04 230.06 264.06 Q 296.04 374.03 414.81 448.81 Z"/><path d="M 430.96 438.02 Q 407.32 299.68 330.97 196.64 Q 349.85 323.48 430.96 438.02 Z"/><path d="M 450 434.23 Q 481.1 297.38 450 172.96 Q 418.9 297.38 450 434.23 Z"/><path d="M 469.04 438.02 Q 550.15 323.48 569.03 196.64 Q 492.68 299.68 469.04 438.02 Z"/><path d="M 485.19 448.81 Q 603.96 374.03 669.94 264.06 Q 559.97 330.04 485.19 448.81 Z"/><path d="M 495.98 464.96 Q 634.32 441.32 737.36 364.97 Q 610.52 383.85 495.98 464.96 Z"/><path d="M 493.81 495.74 Q 539.7 524.81 593.96 522.57 Q 548.08 493.51 493.81 495.74 Z"/><path d="M 482.07 516.07 Q 507.28 564.19 555.39 589.39 Q 530.19 541.28 482.07 516.07 Z"/><path d="M 461.74 527.81 Q 459.51 582.08 488.57 627.96 Q 490.81 573.7 461.74 527.81 Z"/><path d="M 438.26 527.81 Q 409.19 573.7 411.43 627.96 Q 440.49 582.08 438.26 527.81 Z"/><path d="M 417.93 516.07 Q 369.81 541.28 344.61 589.39 Q 392.72 564.19 417.93 516.07 Z"/><path d="M 406.19 495.74 Q 351.92 493.51 306.04 522.57 Q 360.3 524.81 406.19 495.74 Z"/><path d="M 406.19 472.26 Q 360.3 443.19 306.04 445.43 Q 351.92 474.49 406.19 472.26 Z"/><path d="M 417.93 451.93 Q 392.72 403.81 344.61 378.61 Q 369.81 426.72 417.93 451.93 Z"/><path d="M 438.26 440.19 Q 440.49 385.92 411.43 340.04 Q 409.19 394.3 438.26 440.19 Z"/><path d="M 461.74 440.19 Q 490.81 394.3 488.57 340.04 Q 459.51 385.92 461.74 440.19 Z"/><path d="M 482.07 451.93 Q 530.19 426.72 555.39 378.61 Q 507.28 403.81 482.07 451.93 Z"/><path d="M 493.81 472.26 Q 548.08 474.49 593.96 445.43 Q 539.7 443.19 493.81 472.26 Z"/><path d="M 774 484 Q 819.14 488.45 767.77 547.21"/><path d="M 767.77 547.21 Q 811.18 560.38 749.34 607.99"/><path d="M 749.34 607.99 Q 789.34 629.37 719.4 664"/><path d="M 719.4 664 Q 754.46 692.78 679.1 713.1"/><path d="M 679.1 713.1 Q 707.88 748.17 630 753.4"/><path d="M 630 753.4 Q 651.39 793.4 573.99 783.34"/><path d="M 573.99 783.34 Q 587.16 826.74 513.21 801.77"/><path d="M 513.21 801.77 Q 517.66 846.92 450 808"/><path d="M 450 808 Q 445.55 853.14 386.79 801.77"/><path d="M 386.79 801.77 Q 373.62 845.18 326.01 783.34"/><path d="M 326.01 783.34 Q 304.63 823.34 270 753.4"/><path d="M 270 753.4 Q 241.22 788.46 220.9 713.1"/><path d="M 220.9 713.1 Q 185.83 741.88 180.6 664"/><path d="M 180.6 664 Q 140.6 685.39 150.66 607.99"/><path d="M 150.66 607.99 Q 107.26 621.16 132.23 547.21"/><path d="M 132.23 547.21 Q 87.08 551.66 126 484"/><path d="M 126 484 Q 80.86 479.55 132.23 420.79"/><path d="M 132.23 420.79 Q 88.82 407.62 150.66 360.01"/><path d="M 150.66 360.01 Q 110.66 338.63 180.6 304"/><path d="M 180.6 304 Q 145.54 275.22 220.9 254.9"/><path d="M 220.9 254.9 Q 192.12 219.83 270 214.6"/><path d="M 270 214.6 Q 248.61 174.6 326.01 184.66"/><path d="M 326.01 184.66 Q 312.84 141.26 386.79 166.23"/><path d="M 386.79 166.23 Q 382.34 121.08 450 160"/><path d="M 450 160 Q 454.45 114.86 513.21 166.23"/><path d="M 513.21 166.23 Q 526.38 122.82 573.99 184.66"/><path d="M 573.99 184.66 Q 595.37 144.66 630 214.6"/><path d="M 630 214.6 Q 658.78 179.54 679.1 254.9"/><path d="M 679.1 254.9 Q 714.17 226.12 719.4 304"/><path d="M 719.4 304 Q 759.4 282.61 749.34 360.01"/><path d="M 749.34 360.01 Q 792.74 346.84 767.77 420.79"/><path d="M 767.77 420.79 Q 812.92 416.34 774 484"/><circle cx="450" cy="484" r="14.58" fill="#B49A62" stroke="none"/></g></g><g fill="none" stroke="#B49A62" stroke-width="2" stroke-linecap="round">
    <path d="M 243 880 L 243 649 Q 243 396 450 330 Q 657 396 657 649 L 657 880"/>
    <path d="M 450 330 L 450 291.5"/>
    <circle cx="450" cy="280.5" r="2.4" fill="#B49A62" stroke="none"/>
  </g><g opacity="0.5"><g fill="none" stroke="#B49A62" stroke-width="2" stroke-linecap="round">
    <path d="M 144 990 L 144 694.32 Q 144 370.48 450 286 Q 756 370.48 756 694.32 L 756 990"/>
    <path d="M 450 286 L 450 236.72"/>
    <circle cx="450" cy="222.64" r="2.4" fill="#B49A62" stroke="none"/>
  </g></g><g fill="none" stroke="#B49A62" stroke-width="1.8" stroke-linecap="round" stroke-linejoin="round"><circle cx="450" cy="506" r="162"/><circle cx="450" cy="506" r="119.88" stroke-dasharray="2 6"/><circle cx="450" cy="506" r="74.52"/><path d="M 474.88 506 Q 543.31 521.55 605.52 506 Q 543.31 490.45 474.88 506 Z"/><path d="M 471.55 518.44 Q 523.03 566.12 584.68 583.76 Q 538.59 539.19 471.55 518.44 Z"/><path d="M 462.44 527.55 Q 483.19 594.59 527.76 640.68 Q 510.12 579.03 462.44 527.55 Z"/><path d="M 450 530.88 Q 434.45 599.31 450 661.52 Q 465.55 599.31 450 530.88 Z"/><path d="M 437.56 527.55 Q 389.88 579.03 372.24 640.68 Q 416.81 594.59 437.56 527.55 Z"/><path d="M 428.45 518.44 Q 361.41 539.19 315.32 583.76 Q 376.97 566.12 428.45 518.44 Z"/><path d="M 425.12 506 Q 356.69 490.45 294.48 506 Q 356.69 521.55 425.12 506 Z"/><path d="M 428.45 493.56 Q 376.97 445.88 315.32 428.24 Q 361.41 472.81 428.45 493.56 Z"/><path d="M 437.56 484.45 Q 416.81 417.41 372.24 371.32 Q 389.88 432.97 437.56 484.45 Z"/><path d="M 450 481.12 Q 465.55 412.69 450 350.48 Q 434.45 412.69 450 481.12 Z"/><path d="M 462.44 484.45 Q 510.12 432.97 527.76 371.32 Q 483.19 417.41 462.44 484.45 Z"/><path d="M 471.55 493.56 Q 538.59 472.81 584.68 428.24 Q 523.03 445.88 471.55 493.56 Z"/><path d="M 470.95 514.68 Q 491.8 532.08 518.85 534.52 Q 498 517.11 470.95 514.68 Z"/><path d="M 458.68 526.95 Q 461.11 554 478.52 574.85 Q 476.08 547.8 458.68 526.95 Z"/><path d="M 441.32 526.95 Q 423.92 547.8 421.48 574.85 Q 438.89 554 441.32 526.95 Z"/><path d="M 429.05 514.68 Q 402 517.11 381.15 534.52 Q 408.2 532.08 429.05 514.68 Z"/><path d="M 429.05 497.32 Q 408.2 479.92 381.15 477.48 Q 402 494.89 429.05 497.32 Z"/><path d="M 441.32 485.05 Q 438.89 458 421.48 437.15 Q 423.92 464.2 441.32 485.05 Z"/><path d="M 458.68 485.05 Q 476.08 464.2 478.52 437.15 Q 461.11 458 458.68 485.05 Z"/><path d="M 470.95 497.32 Q 498 494.89 518.85 477.48 Q 491.8 479.92 470.95 497.32 Z"/><path d="M 612 506 Q 634.49 508.96 606.48 547.93"/><path d="M 606.48 547.93 Q 627.43 556.61 590.3 587"/><path d="M 590.3 587 Q 608.29 600.81 564.55 620.55"/><path d="M 564.55 620.55 Q 578.36 638.54 531 646.3"/><path d="M 531 646.3 Q 539.68 667.25 491.93 662.48"/><path d="M 491.93 662.48 Q 494.89 684.97 450 668"/><path d="M 450 668 Q 447.04 690.49 408.07 662.48"/><path d="M 408.07 662.48 Q 399.39 683.43 369 646.3"/><path d="M 369 646.3 Q 355.19 664.29 335.45 620.55"/><path d="M 335.45 620.55 Q 317.46 634.36 309.7 587"/><path d="M 309.7 587 Q 288.75 595.68 293.52 547.93"/><path d="M 293.52 547.93 Q 271.03 550.89 288 506"/><path d="M 288 506 Q 265.51 503.04 293.52 464.07"/><path d="M 293.52 464.07 Q 272.57 455.39 309.7 425"/><path d="M 309.7 425 Q 291.71 411.19 335.45 391.45"/><path d="M 335.45 391.45 Q 321.64 373.46 369 365.7"/><path d="M 369 365.7 Q 360.32 344.75 408.07 349.52"/><path d="M 408.07 349.52 Q 405.11 327.03 450 344"/><path d="M 450 344 Q 452.96 321.51 491.93 349.52"/><path d="M 491.93 349.52 Q 500.61 328.57 531 365.7"/><path d="M 531 365.7 Q 544.81 347.71 564.55 391.45"/><path d="M 564.55 391.45 Q 582.54 377.64 590.3 425"/><path d="M 590.3 425 Q 611.25 416.32 606.48 464.07"/><path d="M 606.48 464.07 Q 628.97 461.11 612 506"/><circle cx="450" cy="506" r="7.29" fill="#B49A62" stroke="none"/></g><g transform="translate(153 385) rotate(-20) scale(1.26)" fill="none" stroke="#B49A62" stroke-width="1.59" stroke-linecap="round" stroke-linejoin="round">
    <path d="M0 0 C -22 -10 -34 -34 -22 -56 C -10 -78 24 -78 38 -54 C 50 -33 34 -6 0 0 Z"/>
    <path d="M4 -8 C -12 -18 -20 -34 -12 -50 C -4 -66 18 -66 28 -50 C 36 -36 24 -16 4 -8 Z"/>
    <circle cx="8" cy="-16" r="2.4"/><circle cx="8" cy="-16" r="7" stroke-dasharray="1 4"/>
    <path d="M -4 4 C -12 14 -16 26 -14 38"/><path d="M 8 2 C 4 14 0 26 0 38"/>
    <circle cx="-14" cy="41" r="1.6"/><circle cx="0" cy="41" r="1.6"/>
  </g><g transform="translate(756 385) rotate(20) scale(1.26)" fill="none" stroke="#B49A62" stroke-width="1.59" stroke-linecap="round" stroke-linejoin="round">
    <path d="M0 0 C -22 -10 -34 -34 -22 -56 C -10 -78 24 -78 38 -54 C 50 -33 34 -6 0 0 Z"/>
    <path d="M4 -8 C -12 -18 -20 -34 -12 -50 C -4 -66 18 -66 28 -50 C 36 -36 24 -16 4 -8 Z"/>
    <circle cx="8" cy="-16" r="2.4"/><circle cx="8" cy="-16" r="7" stroke-dasharray="1 4"/>
    <path d="M -4 4 C -12 14 -16 26 -14 38"/><path d="M 8 2 C 4 14 0 26 0 38"/>
    <circle cx="-14" cy="41" r="1.6"/><circle cx="0" cy="41" r="1.6"/>
  </g><g fill="#B49A62" stroke="none"><circle cx="666" cy="506" r="1.7"/><circle cx="637.06" cy="614" r="1.7"/><circle cx="558" cy="693.06" r="1.7"/><circle cx="450" cy="722" r="1.7"/><circle cx="342" cy="693.06" r="1.7"/><circle cx="262.94" cy="614" r="1.7"/><circle cx="234" cy="506" r="1.7"/><circle cx="262.94" cy="398" r="1.7"/><circle cx="342" cy="318.94" r="1.7"/><circle cx="450" cy="290" r="1.7"/><circle cx="558" cy="318.94" r="1.7"/><circle cx="637.06" cy="398" r="1.7"/></g><rect x="22" y="22" width="856" height="1056" rx="20" fill="none" stroke="#C8B78A" stroke-width="2"/><text x="450" y="1056" text-anchor="middle" font-family="Georgia, 'Times New Roman', serif" font-size="16" letter-spacing="7" fill="#B49A62" opacity="0.6">MEHNDI NOOR</text></svg>